<svg width="14" height="14" viewBox="0 0 14 14" fill="none" xmlns="http://www.w3.org/2000/svg">
<path d="M1.66659 13.6666C1.29992 13.6666 0.98603 13.5361 0.724919 13.275C0.463808 13.0139 0.333252 12.7 0.333252 12.3333V6.53331C0.333252 6.26665 0.405474 6.0222 0.549919 5.79998C0.694363 5.57776 0.894363 5.41109 1.14992 5.29998L4.06659 4.06665C4.28881 3.97776 4.49992 3.99442 4.69992 4.11665C4.89992 4.23887 4.99992 4.4222 4.99992 4.66665V4.99998L7.41658 4.03331C7.63881 3.94442 7.84714 3.96665 8.04158 4.09998C8.23603 4.23331 8.33325 4.41665 8.33325 4.64998V5.66665H13.6666V12.3333C13.6666 12.7 13.536 13.0139 13.2749 13.275C13.0138 13.5361 12.6999 13.6666 12.3333 13.6666H1.66659ZM1.66659 12.3333H12.3333V6.99998H6.99992V5.63331L3.66658 6.96665V5.66665L1.66659 6.54998V12.3333ZM6.33325 11H7.66658V8.33331H6.33325V11ZM3.66658 11H4.99992V8.33331H3.66658V11ZM8.99992 11H10.3333V8.33331H8.99992V11ZM13.6666 5.66665H10.3333L10.9333 0.916646C10.9555 0.74998 11.0277 0.611091 11.1499 0.49998C11.2721 0.388869 11.4166 0.333313 11.5833 0.333313H12.4166C12.5833 0.333313 12.7277 0.388869 12.8499 0.49998C12.9721 0.611091 13.0444 0.74998 13.0666 0.916646L13.6666 5.66665Z" fill="#98908A"/>
</svg>
