<svg width="22" height="22" viewBox="0 0 22 22" fill="none" xmlns="http://www.w3.org/2000/svg">
<path d="M21.6381 11.0603C21.6378 8.99277 21.045 6.96865 19.9301 5.22754C18.8151 3.48644 17.2247 2.10125 15.3469 1.23598C13.4692 0.370713 11.3829 0.0615886 9.3349 0.345207C7.28694 0.628825 5.36313 1.49331 3.79122 2.83631C2.21931 4.17932 1.06513 5.94461 0.465313 7.92319C-0.134504 9.90177 -0.154835 12.0108 0.406726 14.0006C0.968287 15.9903 2.08822 17.7776 3.63395 19.1506C5.17968 20.5237 7.08646 21.4251 9.12857 21.7481V14.1883H6.38189V11.0603H9.12857V8.67738C9.12857 5.96585 10.7433 4.46741 13.2155 4.46741C14.3988 4.46741 15.6362 4.67838 15.6362 4.67838V7.34258H14.273C12.9288 7.34258 12.5095 8.17564 12.5095 9.03305V11.0616H15.5105L15.0304 14.1883H12.5095V21.7481C15.0543 21.345 17.3718 20.0471 19.0452 18.088C20.7185 16.1288 21.638 13.6368 21.6381 11.0603Z" fill="#FF6435"/>
</svg>
