<svg width="21" height="21" viewBox="0 0 21 21" fill="none" xmlns="http://www.w3.org/2000/svg">
<g clip-path="url(#clip0_107_634)">
<path d="M14.9405 2.0647H6.48815C4.15409 2.0647 2.26196 3.95683 2.26196 6.29089V14.7433C2.26196 17.0773 4.15409 18.9695 6.48815 18.9695H14.9405C17.2746 18.9695 19.1667 17.0773 19.1667 14.7433V6.29089C19.1667 3.95683 17.2746 2.0647 14.9405 2.0647Z" stroke="#FF6435" stroke-width="2.02857" stroke-linecap="round" stroke-linejoin="round"/>
<path d="M14.0955 9.98439C14.1998 10.6878 14.0796 11.4063 13.7521 12.0375C13.4246 12.6687 12.9063 13.1806 12.2711 13.5003C11.6359 13.82 10.916 13.9313 10.2139 13.8183C9.51184 13.7054 8.86323 13.3739 8.36038 12.871C7.85753 12.3682 7.52604 11.7196 7.41306 11.0175C7.30008 10.3153 7.41137 9.59549 7.73109 8.96028C8.05081 8.32507 8.56268 7.80684 9.19391 7.47931C9.82513 7.15178 10.5436 7.03163 11.247 7.13594C11.9645 7.24234 12.6288 7.5767 13.1418 8.08963C13.6547 8.60255 13.9891 9.26685 14.0955 9.98439Z" stroke="#FF6435" stroke-width="2.02857" stroke-linecap="round" stroke-linejoin="round"/>
<path d="M15.3635 5.86816H15.3722" stroke="#FF6435" stroke-width="2.02857" stroke-linecap="round" stroke-linejoin="round"/>
</g>
<defs>
<clipPath id="clip0_107_634">
<rect width="20.2857" height="20.2857" fill="white" transform="translate(0.571533 0.374268)"/>
</clipPath>
</defs>
</svg>
