<svg width="22" height="24" viewBox="0 0 22 24" fill="none" xmlns="http://www.w3.org/2000/svg">
<g clip-path="url(#clip0_107_641)">
<path d="M20.398 0.241211H1.95689C1.07514 0.241211 0.361084 0.93904 0.361084 1.80051V20.3146C0.365723 20.7338 0.536519 21.134 0.835971 21.4274C1.13542 21.7207 1.53906 21.8833 1.95825 21.8793H20.398C21.2811 21.8793 21.9992 21.1774 21.9992 20.32V1.80051C21.9992 0.93904 21.2811 0.241211 20.398 0.241211ZM6.77948 18.6809H3.57028V8.35144H6.78219V18.6809H6.77948ZM5.17556 6.94226C4.92707 6.94931 4.67969 6.9065 4.44802 6.81637C4.21634 6.72623 4.00508 6.59058 3.8267 6.41745C3.64832 6.24431 3.50643 6.03718 3.40943 5.8083C3.31242 5.57942 3.26225 5.33343 3.26189 5.08484C3.26153 4.83625 3.31098 4.59011 3.40732 4.36094C3.50366 4.13178 3.64494 3.92425 3.82282 3.75059C4.0007 3.57693 4.21157 3.44068 4.44298 3.34987C4.67438 3.25905 4.92164 3.21553 5.17015 3.22186C5.65485 3.2342 6.1156 3.43525 6.45431 3.78219C6.79302 4.12913 6.98294 4.59456 6.98364 5.07943C6.98435 5.56429 6.79578 6.03028 6.45808 6.3782C6.12039 6.72612 5.66023 6.9285 5.17556 6.94226ZM18.8008 18.6782H15.593V13.6582C15.593 12.4627 15.5727 10.9196 13.9241 10.9196C12.2553 10.9196 12.001 12.226 12.001 13.5743V18.6782H8.79588V8.35279H11.8726V9.76468H11.9158C12.3418 8.95325 13.3899 8.09449 14.9492 8.09449C18.2003 8.09449 18.7994 10.234 18.7994 13.0145V18.6809L18.8008 18.6782Z" fill="#FF6435"/>
</g>
<defs>
<clipPath id="clip0_107_641">
<rect width="21.6381" height="22.9905" fill="white" transform="translate(0.361816 0.0219727)"/>
</clipPath>
</defs>
</svg>
