<svg width="23" height="24" viewBox="0 0 23 24" fill="none" xmlns="http://www.w3.org/2000/svg">
<g clip-path="url(#clip0_107_638)">
<path d="M7.59779 19.8518C15.7621 19.8518 20.229 13.0858 20.229 7.22052C20.229 7.03119 20.2236 6.83645 20.2155 6.64711C21.0843 6.01851 21.834 5.23997 22.4294 4.34806C21.6203 4.70824 20.7612 4.94353 19.8815 5.04589C20.8075 4.4907 21.5008 3.61863 21.833 2.59132C20.9618 3.10736 20.0092 3.47138 19.0159 3.66782C18.3463 2.95631 17.461 2.48523 16.4968 2.32742C15.5326 2.16961 14.5432 2.33386 13.6817 2.79478C12.8202 3.2557 12.1346 3.9876 11.7308 4.87731C11.3271 5.76702 11.2277 6.76498 11.448 7.71685C9.68345 7.62846 7.95716 7.17021 6.38107 6.37179C4.80498 5.57338 3.41429 4.45264 2.29916 3.08224C1.73255 4.05931 1.55924 5.21548 1.81446 6.31574C2.06968 7.41601 2.73428 8.37782 3.67318 9.00567C2.96847 8.98338 2.27917 8.79379 1.66219 8.45254V8.50664C1.66112 9.53236 2.01545 10.5268 2.66489 11.3207C3.31434 12.1146 4.21879 12.659 5.22436 12.8613C4.57126 13.039 3.88615 13.0649 3.22149 12.937C3.50536 13.8187 4.05731 14.5898 4.80035 15.1428C5.5434 15.6957 6.4405 16.003 7.36654 16.0218C6.44518 16.7453 5.39011 17.2798 4.26179 17.5947C3.13347 17.9096 1.95409 17.9987 0.79126 17.857C2.82213 19.1603 5.18469 19.8527 7.59779 19.8518Z" fill="#FF6435"/>
</g>
<defs>
<clipPath id="clip0_107_638">
<rect width="21.6381" height="22.9905" fill="white" transform="translate(0.790527 0.0219727)"/>
</clipPath>
</defs>
</svg>
