<svg width="24" height="24" viewBox="0 0 24 24" fill="none" xmlns="http://www.w3.org/2000/svg">
<path d="M18.6933 6.6C18.6933 6.5 18.5867 6.4 18.48 6.3C18.3733 6.2 18.2667 6.1 18.16 6.1C18.0533 6 17.84 6 17.7333 6H8.13333C7.49333 6 7.06667 6.4 7.06667 7C7.06667 7.6 7.49333 8 8.13333 8H15.1733L6.32 16.3C5.89333 16.7 5.89333 17.3 6.32 17.7C6.53333 17.9 6.74667 18 7.06667 18C7.38667 18 7.6 17.9 7.81333 17.7L16.6667 9.4V16C16.6667 16.6 17.0933 17 17.7333 17C18.3733 17 18.8 16.6 18.8 16V7C18.8 6.9 18.8 6.7 18.6933 6.6Z" fill="white"/>
</svg>
