<svg width="14" height="14" viewBox="0 0 14 14" fill="none" xmlns="http://www.w3.org/2000/svg">
<path d="M0.333496 13.3334V3.50004C0.333496 3.38893 0.355718 3.28893 0.400163 3.20004C0.444607 3.11115 0.511274 3.03337 0.600163 2.96671L3.26683 0.966707C3.38905 0.877818 3.52238 0.833374 3.66683 0.833374C3.81127 0.833374 3.94461 0.877818 4.06683 0.966707L6.7335 2.96671C6.82238 3.03337 6.88905 3.11115 6.9335 3.20004C6.97794 3.28893 7.00016 3.38893 7.00016 3.50004V4.66671H13.0002C13.1891 4.66671 13.3474 4.7306 13.4752 4.85837C13.6029 4.98615 13.6668 5.14449 13.6668 5.33337V13.3334C13.6668 13.5223 13.6029 13.6806 13.4752 13.8084C13.3474 13.9362 13.1891 14 13.0002 14H1.00016C0.811274 14 0.652941 13.9362 0.525163 13.8084C0.397385 13.6806 0.333496 13.5223 0.333496 13.3334ZM1.66683 12.6667H3.00016V11.3334H1.66683V12.6667ZM1.66683 10H3.00016V8.66671H1.66683V10ZM1.66683 7.33337H3.00016V6.00004H1.66683V7.33337ZM1.66683 4.66671H3.00016V3.33337H1.66683V4.66671ZM4.3335 4.66671H5.66683V3.33337H4.3335V4.66671ZM4.3335 12.6667H12.3335V6.00004H4.3335V12.6667ZM9.00016 7.33337H10.3335C10.5224 7.33337 10.6807 7.39726 10.8085 7.52504C10.9363 7.65282 11.0002 7.81115 11.0002 8.00004C11.0002 8.18893 10.9363 8.34726 10.8085 8.47504C10.6807 8.60282 10.5224 8.66671 10.3335 8.66671H9.00016C8.81127 8.66671 8.65294 8.60282 8.52516 8.47504C8.39738 8.34726 8.3335 8.18893 8.3335 8.00004C8.3335 7.81115 8.39738 7.65282 8.52516 7.52504C8.65294 7.39726 8.81127 7.33337 9.00016 7.33337ZM9.00016 10H10.3335C10.5224 10 10.6807 10.0639 10.8085 10.1917C10.9363 10.3195 11.0002 10.4778 11.0002 10.6667C11.0002 10.8556 10.9363 11.0139 10.8085 11.1417C10.6807 11.2695 10.5224 11.3334 10.3335 11.3334H9.00016C8.81127 11.3334 8.65294 11.2695 8.52516 11.1417C8.39738 11.0139 8.3335 10.8556 8.3335 10.6667C8.3335 10.4778 8.39738 10.3195 8.52516 10.1917C8.65294 10.0639 8.81127 10 9.00016 10ZM7.00016 8.00004C7.00016 8.18893 6.93627 8.34726 6.8085 8.47504C6.68072 8.60282 6.52238 8.66671 6.3335 8.66671C6.14461 8.66671 5.98627 8.60282 5.8585 8.47504C5.73072 8.34726 5.66683 8.18893 5.66683 8.00004C5.66683 7.81115 5.73072 7.65282 5.8585 7.52504C5.98627 7.39726 6.14461 7.33337 6.3335 7.33337C6.52238 7.33337 6.68072 7.39726 6.8085 7.52504C6.93627 7.65282 7.00016 7.81115 7.00016 8.00004ZM6.3335 11.3334C6.14461 11.3334 5.98627 11.2695 5.8585 11.1417C5.73072 11.0139 5.66683 10.8556 5.66683 10.6667C5.66683 10.4778 5.73072 10.3195 5.8585 10.1917C5.98627 10.0639 6.14461 10 6.3335 10C6.52238 10 6.68072 10.0639 6.8085 10.1917C6.93627 10.3195 7.00016 10.4778 7.00016 10.6667C7.00016 10.8556 6.93627 11.0139 6.8085 11.1417C6.68072 11.2695 6.52238 11.3334 6.3335 11.3334Z" fill="#98908A"/>
</svg>
